<svg xmlns="http://www.w3.org/2000/svg" viewBox="0 0 800 450" fill="none">
  <defs>
    <linearGradient id="bg" x1="62" y1="34" x2="738" y2="416" gradientUnits="userSpaceOnUse">
      <stop stop-color="#07101c"/>
      <stop offset="1" stop-color="#101827"/>
    </linearGradient>
    <linearGradient id="panel" x1="96" y1="70" x2="704" y2="386" gradientUnits="userSpaceOnUse">
      <stop stop-color="#0f1a2b"/>
      <stop offset="1" stop-color="#0a101d"/>
    </linearGradient>
    <linearGradient id="blue" x1="154" y1="154" x2="656" y2="338" gradientUnits="userSpaceOnUse">
      <stop stop-color="#38bdf8"/>
      <stop offset=".52" stop-color="#6366f1"/>
      <stop offset="1" stop-color="#22c55e"/>
    </linearGradient>
    <linearGradient id="line" x1="174" y1="298" x2="556" y2="216" gradientUnits="userSpaceOnUse">
      <stop stop-color="#38bdf8"/>
      <stop offset=".5" stop-color="#818cf8"/>
      <stop offset="1" stop-color="#22c55e"/>
    </linearGradient>
    <filter id="soft" x="-20%" y="-20%" width="140%" height="140%">
      <feDropShadow dx="0" dy="20" stdDeviation="24" flood-color="#020617" flood-opacity=".42"/>
    </filter>
    <pattern id="grid" width="32" height="32" patternUnits="userSpaceOnUse">
      <path d="M32 0H0V32" stroke="#94a3b8" stroke-opacity=".055"/>
    </pattern>
  </defs>

  <rect width="800" height="450" rx="28" fill="url(#bg)"/>
  <rect width="800" height="450" rx="28" fill="url(#grid)"/>
  <circle cx="662" cy="88" r="130" fill="#2563eb" opacity=".12"/>
  <circle cx="128" cy="362" r="158" fill="#14b8a6" opacity=".08"/>

  <g filter="url(#soft)">
    <rect x="76" y="56" width="648" height="338" rx="26" fill="url(#panel)" stroke="#23334c"/>

    <rect x="76" y="56" width="648" height="46" rx="26" fill="#121c2d"/>
    <path d="M76 98h648" stroke="#24344d"/>
    <circle cx="108" cy="79" r="5" fill="#38bdf8"/>
    <circle cx="128" cy="79" r="5" fill="#818cf8"/>
    <circle cx="148" cy="79" r="5" fill="#22c55e"/>
    <rect x="586" y="71" width="96" height="16" rx="8" fill="#1b2940"/>

    <rect x="102" y="124" width="72" height="222" rx="18" fill="#0b1220" stroke="#23334c"/>
    <rect x="124" y="150" width="28" height="28" rx="10" fill="#16243a"/>
    <rect x="122" y="196" width="32" height="6" rx="3" fill="#334155"/>
    <rect x="122" y="222" width="32" height="6" rx="3" fill="#334155"/>
    <rect x="122" y="248" width="32" height="6" rx="3" fill="#334155"/>
    <rect x="122" y="304" width="32" height="6" rx="3" fill="#334155"/>

    <rect x="198" y="124" width="118" height="78" rx="18" fill="#111b2c" stroke="#253856"/>
    <text x="218" y="153" fill="#94a3b8" font-family="Inter, system-ui, sans-serif" font-size="11">requests</text>
    <text x="218" y="181" fill="#e2e8f0" font-family="Inter, system-ui, sans-serif" font-size="25" font-weight="800">2.4K</text>
    <path d="M274 178h20" stroke="#38bdf8" stroke-width="5" stroke-linecap="round"/>

    <rect x="336" y="124" width="118" height="78" rx="18" fill="#111b2c" stroke="#253856"/>
    <text x="356" y="153" fill="#94a3b8" font-family="Inter, system-ui, sans-serif" font-size="11">accuracy</text>
    <text x="356" y="181" fill="#e2e8f0" font-family="Inter, system-ui, sans-serif" font-size="25" font-weight="800">98%</text>
    <path d="M410 178h22" stroke="#22c55e" stroke-width="5" stroke-linecap="round"/>

    <rect x="474" y="124" width="206" height="78" rx="18" fill="#111b2c" stroke="#253856"/>
    <text x="496" y="153" fill="#94a3b8" font-family="Inter, system-ui, sans-serif" font-size="11">service topology</text>
    <circle cx="514" cy="178" r="15" fill="#16243a" stroke="#38bdf8"/>
    <text x="506" y="182" fill="#e0f2fe" font-family="Inter, system-ui, sans-serif" font-size="9" font-weight="800">JS</text>
    <path d="M530 178h46" stroke="#475569" stroke-width="2.5"/>
    <circle cx="592" cy="178" r="15" fill="#16243a" stroke="#22c55e"/>
    <text x="585" y="182" fill="#dcfce7" font-family="Inter, system-ui, sans-serif" font-size="9" font-weight="800">PY</text>
    <path d="M608 178h32" stroke="#475569" stroke-width="2.5"/>
    <circle cx="652" cy="178" r="8" fill="#818cf8"/>

    <rect x="198" y="226" width="312" height="120" rx="20" fill="#111b2c" stroke="#253856"/>
    <text x="222" y="259" fill="#cbd5e1" font-family="Inter, system-ui, sans-serif" font-size="13" font-weight="700">Processing timeline</text>
    <path d="M222 314C258 286 288 303 322 275C358 246 392 321 430 286C462 257 488 264 510 246" stroke="url(#line)" stroke-width="4.5" stroke-linecap="round"/>
    <path d="M222 324h256" stroke="#263856" stroke-width="2"/>
    <circle cx="430" cy="286" r="6" fill="#e0e7ff" stroke="#818cf8" stroke-width="3"/>
    <rect x="222" y="278" width="58" height="8" rx="4" fill="#263856"/>

    <rect x="534" y="226" width="146" height="120" rx="20" fill="#111b2c" stroke="#253856"/>
    <text x="558" y="259" fill="#cbd5e1" font-family="Inter, system-ui, sans-serif" font-size="13" font-weight="700">Audit</text>
    <circle cx="606" cy="302" r="34" fill="none" stroke="#22324a" stroke-width="12"/>
    <circle cx="606" cy="302" r="34" fill="none" stroke="url(#blue)" stroke-width="12" stroke-linecap="round" stroke-dasharray="158 214" transform="rotate(-90 606 302)"/>
    <path d="M592 303l9 9 19-24" stroke="#e0f2fe" stroke-width="4" stroke-linecap="round" stroke-linejoin="round"/>
  </g>

  <rect x="96" y="374" width="226" height="28" rx="14" fill="#0b1220" stroke="#253856"/>
  <text x="118" y="393" fill="#cbd5e1" font-family="Inter, system-ui, sans-serif" font-size="12" font-weight="700">Enterprise Dashboard</text>
  <rect x="486" y="374" width="216" height="28" rx="14" fill="#0b1220" stroke="#253856"/>
  <text x="510" y="393" fill="#64748b" font-family="Inter, system-ui, sans-serif" font-size="11">Node.js + Python + audit logs</text>
</svg>
